<?xml version="1.0" standalone="no"?><!DOCTYPE svg PUBLIC "-//W3C//DTD SVG 1.1//EN" "http://www.w3.org/Graphics/SVG/1.1/DTD/svg11.dtd"><svg t="1642367077664" class="icon" viewBox="0 0 1024 1024" version="1.1" xmlns="http://www.w3.org/2000/svg" p-id="1036" xmlns:xlink="http://www.w3.org/1999/xlink" width="200" height="200"><defs><style type="text/css"></style></defs><path d="M500.622222 441.457778c0-2.275556 0-2.275556 0 0 0-2.275556 0 0 0 0z m147.911111 163.83999999z m4.551111 0h-4.551111s2.275556 2.275556 4.551111 0zM507.448889 118.328889c-213.902222 0-389.12 172.942222-389.12 389.12s172.942222 389.12 389.12 389.12c213.902222 0 389.12-172.942222 389.12-389.12S723.626667 118.328889 507.448889 118.328889z m248.035555 152.462222c-13.653333 0-22.755556 0-34.133333 6.826667-4.551111 2.275556-6.826667 6.826667-13.653333 9.102222-4.551111 2.275556-11.377778 0-15.928889 2.275556-18.204444 6.826667-15.928889 43.235556-38.684445 38.684444-11.377778-2.275556-18.204444-15.928889-25.03111101-25.031111-4.551111-6.826667-13.653333-13.653333-6.82666599-22.755556h-9.10222299c4.551111-9.102222 15.928889-6.826667 18.20444499-11.377777 4.551111-11.377778-13.653333-11.377778-20.48000001-13.65333401 6.826667-6.826667 9.102222 2.275556 15.92888901 0 6.826667-2.275556-2.275556-9.102222-6.82666701-11.37777798-2.275556 0-22.755556 6.826667-11.37777798-4.551111-15.928889-9.102222-31.857778-20.48-47.78666601-29.58222201-2.275556 11.377778 20.48 18.204444 29.58222201 20.48000001-2.275556 4.551111-9.102222 11.377778-13.653333 9.102222-4.551111-2.275556-2.275556-11.377778-11.37777801-9.102222-4.551111 13.653333 11.377778 9.102222 13.653333 18.20444499 2.275556 9.102222-6.826667 4.551111-9.102222 4.551111 0 0-6.826667-6.826667-6.826667-2.27555601 0 4.551111 9.102222 4.551111 11.377778 9.102222-11.377778 0-18.204444-4.551111-27.306667-9.102222-11.377778-6.826667-15.928889-6.826667-29.582222-6.82666698 4.551111-2.275556 9.102222-2.275556 13.653333-4.551111 2.275556-2.275556 9.102222-9.102222 9.102223-11.37777702 2.275556-6.826667 0-6.826667-6.826667-11.37777798-2.275556-2.275556-9.102222-11.377778-18.204444-11.37777801-25.031111-4.551111-9.102222 22.755556-27.306667 27.30666699-4.551111 0-13.653333-2.275556-15.928889 2.27555502-2.275556 2.275556-2.275556 9.102222-4.551111 11.37777798-4.551111 4.551111-11.377778 4.551111-15.928889 9.102222-4.551111 2.275556-15.928889 11.377778-18.204444 15.92888901-11.377778 20.48 22.755556 27.306667 36.408888 31.857778 6.826667 2.275556 22.755556 6.826667 25.031112 11.377778 4.551111 6.826667-4.551111 11.377778 4.551111 15.928889 2.275556 2.275556 9.102222 2.275556 11.377777-2.275556 4.551111-4.551111-2.275556-4.551111-2.275555-11.377778-2.275556-9.102222 2.275556-6.826667 6.826667-9.102222 9.102222-6.826667 6.826667-9.102222 4.551111-20.48-2.275556-4.551111-9.102222-20.48-2.275556-25.031111 6.826667-4.551111 22.755556 2.275556 29.582222 4.551111 6.826667 0 11.377778 9.102222 13.653334 13.653333 2.275556 2.275556 6.826667 6.826667 11.377777 6.826667 6.826667 0 4.551111-6.826667 6.826667-9.102222 11.377778-6.826667 13.653333 2.275556 18.20444499 11.377778 4.551111 9.102222 6.826667 11.377778 13.653333 18.204444 2.275556 2.275556 18.204444 11.377778 15.92888901 18.204444 0 4.551111-15.928889 9.102222-20.48000001 11.377778-15.928889 4.551111-45.511111-9.102222-47.78666699 15.928889 6.826667-2.275556 22.755556-15.928889 27.30666701-9.102222 2.275556 2.275556-2.275556 6.826667 0 11.377778 2.275556 9.102222 9.102222 6.826667 18.204444 4.551111h-2.27555502c9.102222-4.551111 9.102222-4.551111 13.653333-11.377778 2.275556-2.275556 4.551111-9.102222 6.82666701-11.377778 6.826667-6.826667 9.102222-2.275556 13.653333 2.275556 2.275556 2.275556 11.377778 18.204444 9.102222 15.928889-13.653333-2.275556-25.031111-2.275556-36.40888899 4.551111-6.826667 4.551111-11.377778 9.102222-18.204444 11.377778-2.275556 0-15.928889 2.275556-13.653333 0 2.275556-2.275556 9.102222-4.551111 13.653333-9.102223-9.102222-4.551111-15.928889 4.551111-22.75555601 9.102223-6.826667 2.275556-9.102222 9.102222-13.653333 15.928888-2.275556 2.275556-6.826667 2.275556-9.102222 6.826667-2.275556 2.275556-2.275556 6.826667-4.551111 11.37777801-2.275556 2.275556-6.826667 0-6.826667 4.551111-2.275556 4.551111 2.275556 6.826667 0 11.37777798s-11.377778 9.102222-15.928889 13.653333l2.275556-2.27555499c-4.551111 4.551111-9.102222 6.826667-11.377778 11.37777699 2.275556 6.826667 6.826667 22.755556 4.551111 25.03111101-11.377778 9.102222-18.204444-9.102222-22.755556-13.653333-11.377778-15.928889-31.857778-4.551111-47.786666-4.551111-18.204444 2.275556-36.408889 25.031111-25.03111101 45.511111 4.551111 9.102222 15.928889 13.653333 25.03111101 11.377778 9.102222-2.275556 11.377778-15.928889 20.48-15.928889 15.928889 0 0 15.928889 0 22.755556-2.275556 4.551111 2.275556 6.826667 6.826666 6.826666 4.551111 0 11.377778-2.275556 13.653334 0 2.275556 2.275556 2.275556 9.102222 4.551111 6.826667-6.826667 4.551111-4.551111 18.204444 2.275555 22.755555 6.826667 4.551111 15.928889 0 22.755556 2.275556 13.653333 4.551111 6.826667 0 20.48-9.102222 9.102222-4.551111 9.102222 0 15.928889 0 4.551111 0 6.826667-4.551111 13.653333-4.551111 4.551111 2.275556 6.826667 4.551111 13.65333401 6.826666h6.82666599c11.377778 2.275556 20.48 9.102222 29.58222201 15.928889 6.826667 4.551111 13.653333 4.551111 22.75555599 6.826667 6.826667 2.275556 18.204444 11.377778 18.204444 20.48000001 0 2.275556-6.826667 9.102222-6.826666 11.37777798 2.275556 2.275556 13.653333-2.275556 15.928889-2.27555598 0 2.275556-9.102222 6.826667-9.102223 4.551111 0 2.275556 4.551111 4.551111 6.826667 4.551111 4.551111-13.653333 11.377778-4.551111 18.204445-2.27555502 6.826667 2.275556 15.928889 2.275556 22.755555 4.551111 6.826667 2.275556 20.48 6.826667 25.031111 11.37777801 4.551111 6.826667 2.275556 15.928889-2.275555 22.755555-4.551111 9.102222-13.653333 11.377778-18.204445 20.48-2.275556 6.826667 0 15.928889-2.275555 22.755556-2.275556 11.377778-4.551111 6.826667-11.377778 13.653333s0 4.551111-9.102222 9.102222-15.928889 2.275556-22.755556 11.377778v-2.275555c-2.275556 4.551111-4.551111 11.377778-4.551111 13.653333-2.275556 6.826667-6.826667 9.102222-11.377778 13.653333-2.275556 2.275556-18.204444 25.031111-18.204444 22.75555601-2.275556-2.275556-13.653333 2.275556-13.65333399 0 0 2.275556 0 2.275556 2.27555598 4.551111-2.275556 18.204444-11.377778 20.48-29.58222198 20.47999998 2.275556 9.102222-6.826667 6.826667-11.37777801 11.37777801-2.275556 2.275556-2.275556 11.377778-4.551111 13.653333 0 2.275556-9.102222 11.377778-9.102222 13.653333 0 2.275556 2.275556 4.551111 4.551111 6.826667-13.653333 2.275556-25.031111 4.551111-38.684445 4.551111 2.275556-2.275556 2.275556-6.826667-4.551111-6.826667 2.275556-6.826667 6.826667-9.102222 9.102222-13.653333v-6.82666701c2.275556-9.102222 2.275556-4.551111 0-11.37777699-4.551111-15.928889 2.275556-20.48 6.826667-36.40888899 4.551111-15.928889 4.551111-34.133333 6.826667-52.33777801 2.275556-6.826667 4.551111-25.031111 0-31.857778-2.275556-9.102222-15.928889-15.928889-22.755556-20.48-9.102222-9.102222-13.653333-15.928889-20.48-27.306666-2.275556-4.551111-6.826667-9.102222-9.102222-15.928889-4.551111-11.377778 0-4.551111 0-11.37777801s0-13.653333 2.275556-20.47999998c2.275556-6.826667 9.102222-13.653333 13.653333-20.48000001 2.275556-6.826667 0-15.928889-6.826667-18.204445-4.551111-2.275556-9.102222 2.275556-11.377778 0-4.551111 0-11.377778-4.551111-15.928888-9.102222-6.826667-4.551111-9.102222-11.377778-15.928889-15.928889-4.551111-4.551111-9.102222-2.275556-15.928889-2.275555-6.826667-2.275556-9.102222-9.102222-13.65333399-11.377778-6.826667-4.551111-11.377778 2.275556-18.204444 0-6.826667 0-15.928889-9.102222-22.75555601-11.377778-13.653333-4.551111-20.48-11.377778-25.031111-25.031111-4.551111-11.377778-11.377778-15.928889-18.204444-25.031111-6.826667-9.102222-9.102222-15.928889-20.48-20.48000001-2.275556 0 2.275556 9.102222 2.275555 11.37777801 4.551111 6.826667 11.377778 13.653333 15.928889 22.755555 6.826667 11.377778 4.551111 11.377778-2.275555 2.275556-9.102222-11.377778-18.204444-22.755556-25.031111-34.133333 4.551111 4.551111 4.551111 0 0-4.55111199s-11.377778-6.826667-13.653334-11.37777702c-15.928889-13.653333-18.204444-34.133333-18.204444-54.61333399 0-6.826667 2.275556-11.377778 2.275555-18.204444 0-4.551111-4.551111-9.102222-9.102222-13.653333-2.275556-2.275556-4.551111-6.826667-4.551111-6.826667-4.551111-6.826667-6.826667-11.377778-11.37777801-15.928889-2.275556-2.275556-11.377778-9.102222-20.47999998-15.928889 36.408889-45.511111 84.19555599-81.92000001 138.80888899-104.675555 0 2.275556 2.275556 4.551111 2.275556 9.102222 6.826667 6.826667 11.377778 6.826667 18.204444 9.102222 0 9.102222-13.653333 11.377778-20.48 9.102222-9.102222-2.275556-20.48-4.551111-27.306666 4.551111 4.551111 2.275556 18.204444 13.653333 15.928888 2.27555601h27.306667c4.551111 0 15.928889 4.551111 18.20444499 2.27555499 2.275556 0 2.275556-6.826667 4.551111-9.102222-2.275556 0-4.551111-2.275556-6.82666698 0 6.826667-6.826667 11.377778-2.275556 20.47999998 2.27555601-9.102222 4.551111-2.275556 18.204444 4.551111 6.82666599 6.826667-9.102222-2.275556-13.653333-9.102222-18.204444 9.102222-11.377778 13.653333-11.377778 22.755555 0 2.275556-6.826667 6.826667-4.551111 13.65333401-4.551111v-2.275556c-2.275556 0-6.826667-2.275556-9.102222-2.275555 6.826667-11.377778 2.275556-13.653333 11.377777-15.928889 6.826667-2.275556 27.306667 0 31.857778-6.826667-13.653333 2.275556-31.857778 4.551111-45.511111 9.102222-6.826667 2.275556-11.377778 11.377778-18.204444 6.826667-6.826667-6.826667 4.551111-15.928889 9.102222-18.204444h-2.27555601c22.755556-4.551111 47.786667-6.826667 72.81777801-6.826667 15.928889 0 31.857778 2.275556 47.786667 2.275556-4.551111 2.275556-2.275556 4.551111-4.551111 6.826666-6.826667 4.551111-20.48 9.102222-29.582223 13.653334 11.377778 0 38.684444 11.377778 43.235556-4.551112-4.551111 0-6.826667 0-11.377778-2.275555 6.826667-4.551111 13.653333-9.102222 22.75555601-11.377778 65.991111 15.928889 129.706667 52.337778 175.21777699 102.4 2.275556 0 0 0 0 0z m63.715556 136.533333c0-2.275556 2.275556-2.275556 2.275556-2.27555499 2.275556-2.275556 0-4.551111 2.275555-6.82666701 2.275556-2.275556 4.551111-2.275556 6.826667-4.551111l2.275555-2.27555499c6.826667 15.928889 11.377778 31.857778 13.653334 50.06222199l-6.826667 2.27555499c-4.551111 0-6.826667-2.275556-9.102222-4.551111l-9.102222-9.102222c-2.275556-4.551111 0-6.826667 0-11.37777798-2.275556-4.551111-4.551111-9.102222-2.275556-11.37777801z m4.551111 177.49333401c-6.826667-6.826667-13.653333-13.653333-18.204444-20.48000001-4.551111-9.102222-2.275556-15.928889-2.27555601-25.031111 0-6.826667-4.551111-18.204444 0-25.031111l6.82666701-6.826667c2.275556-4.551111 2.275556-9.102222 6.82666599-13.653333 4.551111-4.551111 9.102222-6.826667 13.65333401-11.377778 4.551111-4.551111 4.551111-6.826667 6.826666-13.653334 2.275556-4.551111 6.826667-11.377778 11.377778-13.653333 2.275556 18.204444 4.551111 34.133333 4.551111 52.337778 0 29.582222-4.551111 61.44-11.377777 88.74666699-6.826667-2.275556-13.653333-6.826667-18.204445-11.37777798z m0 0" fill="" p-id="1037"></path></svg>