<?xml version="1.0" standalone="no"?><!DOCTYPE svg PUBLIC "-//W3C//DTD SVG 1.1//EN" "http://www.w3.org/Graphics/SVG/1.1/DTD/svg11.dtd"><svg t="1642367108295" class="icon" viewBox="0 0 1024 1024" version="1.1" xmlns="http://www.w3.org/2000/svg" p-id="1594" xmlns:xlink="http://www.w3.org/1999/xlink" width="200" height="200"><defs><style type="text/css"></style></defs><path d="M527.56625001 49.8125c134.458125 0 225.21562498 75.79781252 225.21562499 202.11843749 0 15.4865625-12.553125 28.040625-28.03874999 28.04062497-15.26250003 0-27.67875001-12.19875001-28.0303125-27.37874996l-0.00750001-0.66187501c0-92.8875-63.6403125-146.03812498-169.13906249-146.03812498-97.880625 0-177.4078125 78.5165625-178.98843751 175.96781249l-0.02437499 2.95875v99.31781249h407.63062499C833.609375 384.138125 896.37499999 446.9084375 896.37499999 524.33937499v267.46031249C896.37499999 869.22968749 833.609375 932 756.1840625 932H268.75343748C191.328125 932 128.5625 869.22968749 128.5625 791.79874998v-267.45937499c0-77.431875 62.765625-140.20125001 140.19093751-140.20124999l23.72343749-0.00093746v-99.31875004C292.4778125 155.02625001 397.73468753 49.8125 527.56718751 49.8125z m-15.09093751 524.135625h-0.013125c-15.32625002 0-27.78000002 12.30000001-28.0275 27.56812498l-0.00375 0.46312502v151.003125c0 15.32718751 12.30000001 27.78093748 27.5671875 28.02843749l0.4640625 0.00374999h0.013125c15.32625002 0 27.78000002-12.30000001 28.02750001-27.56812498l0.00374999-0.463125v-151.00312499c0-15.48187499-12.549375-28.03125002-28.03125-28.03124999z" fill="#C0C4CC" p-id="1595"></path></svg>