<?xml version="1.0" standalone="no"?><!DOCTYPE svg PUBLIC "-//W3C//DTD SVG 1.1//EN" "http://www.w3.org/Graphics/SVG/1.1/DTD/svg11.dtd"><svg t="1642367095162" class="icon" viewBox="0 0 1024 1024" version="1.1" xmlns="http://www.w3.org/2000/svg" p-id="1318" xmlns:xlink="http://www.w3.org/1999/xlink" width="200" height="200"><defs><style type="text/css"></style></defs><path d="M514.8125 94.8125c138.24375 0 250.3125 112.06875 250.3125 250.3125 0 92.025-49.6603125 172.453125-123.645 215.94375v-0.016875C790.11875 614.7284375 896.375 757.221875 896.375 924.5675c0 15.496875-12.54375 28.0575-28.0171875 28.0575-15.253125 0-27.6590625-12.2053125-28.010625-27.39375l-0.0075-0.6628125c0-175.7203125-137.06625-319.381875-309.975-329.62125l-0.0009375 0.015a254.165625 254.165625 0 0 1-34.7465625-0.249375v-0.015c-173.3625 7.760625-311.8940625 149.56875-314.7253125 324.4096875l-0.0440625 5.4609375c0 15.495-12.54375 28.0565625-28.018125 28.0565625C137.35625 952.625 124.8125 940.0634375 124.8125 924.5684375c0-169.3303125 108.79125-313.215 260.1984375-365.3878125l0.0009375 0.0159375C312.7625 515.2934375 264.5 435.8459375 264.5 345.125c0-138.24375 112.06875-250.3125 250.3125-250.3125z" fill="#C0C4CC" p-id="1319"></path></svg>